# xmcd
#
# Track frame offsets: 
#        150
#        10582
#        23786
#        42479
#        58548
#        73837
#        92223
#        112244
#        128984
#
# Disc length: 1969 seconds
#
# Revision: 0
# Processed by: cddbd v1.5.2PL0 Copyright (c) Steve Scherf et al.
# Submitted via: ExactAudioCopy v0.99pb4
#
DISCID=7c07af09
DTITLE=Doug Burr - The Shawl
DYEAR=2008
DGENRE=Country
TTITLE0=I Am Weary with My Sighing
TTITLE1=God Is Known in Judah
TTITLE2=Surely God Is Good to Israel
TTITLE3=A Thousand May Fall
TTITLE4=The Righteous Will Rejoice
TTITLE5=And We Will Be Saved
TTITLE6=My Voice Rises to God
TTITLE7=Which We Have Heard and Known
TTITLE8=In the Lord I Take Refuge
EXTD=
EXTT0=
EXTT1=
EXTT2=
EXTT3=
EXTT4=
EXTT5=
EXTT6=
EXTT7=
EXTT8=
PLAYORDER=
